<svg width="18" height="18" viewBox="0 0 18 18" fill="none" xmlns="http://www.w3.org/2000/svg">
  <path
    d="M10.5985 1.67084C10.9021 1.73677 11.0948 2.03632 11.0288 2.33989C10.9629 2.64348 10.6634 2.83614 10.3597 2.77022C9.91665 2.67399 9.4617 2.625 9 2.625C5.47919 2.625 2.625 5.47919 2.625 9C2.625 12.5208 5.47919 15.375 9 15.375C12.5208 15.375 15.375 12.5208 15.375 9C15.375 8.55772 15.3301 8.12167 15.2417 7.6962C15.1785 7.39206 15.3739 7.09426 15.678 7.03109C15.9822 6.9679 16.28 7.16326 16.3432 7.46743C16.4471 7.968 16.5 8.48077 16.5 9C16.5 13.1421 13.1421 16.5 9 16.5C4.85786 16.5 1.5 13.1421 1.5 9C1.5 4.85786 4.85786 1.5 9 1.5C9.5421 1.5 10.0771 1.55761 10.5985 1.67084Z"
    fill="#111111" />
  <path fill-rule="evenodd" clip-rule="evenodd"
    d="M10.011 7.98998C10.2307 8.20958 10.5869 8.2095 10.8065 7.98983L13.5228 5.27269C13.7425 5.05299 13.7424 4.69683 13.5227 4.47719C13.303 4.25756 12.9468 4.25761 12.7272 4.47731L10.0109 7.19444C9.79125 7.41415 9.79125 7.7703 10.011 7.98998ZM6.16471 11.8352C6.38436 12.0549 6.74051 12.0549 6.96021 11.8353L7.8981 10.8976C8.11778 10.678 8.11785 10.3218 7.89818 10.1021C7.6785 9.88245 7.32236 9.88238 7.10267 10.1021L6.16479 11.0397C5.9451 11.2594 5.94506 11.6156 6.16471 11.8352Z"
    fill="#111111" />
  <path fill-rule="evenodd" clip-rule="evenodd"
    d="M11.0625 4.3125C11.0625 4.00184 11.3144 3.75 11.625 3.75H13.6875C13.9982 3.75 14.25 4.00184 14.25 4.3125C14.25 4.62316 13.9982 4.875 13.6875 4.875H11.625C11.3144 4.875 11.0625 4.62316 11.0625 4.3125Z"
    fill="#111111" />
  <path fill-rule="evenodd" clip-rule="evenodd"
    d="M13.125 4.3125C13.125 4.00184 13.3769 3.75 13.6875 3.75C13.9981 3.75 14.25 4.00184 14.25 4.3125V6.375C14.25 6.68566 13.9981 6.9375 13.6875 6.9375C13.3769 6.9375 13.125 6.68566 13.125 6.375V4.3125Z"
    fill="#111111" />
  <path fill-rule="evenodd" clip-rule="evenodd"
    d="M6.75 9C6.75 10.2427 7.75732 11.25 9 11.25C10.2427 11.25 11.25 10.2427 11.25 9C11.25 7.75732 10.2427 6.75 9 6.75C7.75732 6.75 6.75 7.75732 6.75 9ZM10.125 9C10.125 9.6213 9.6213 10.125 9 10.125C8.3787 10.125 7.875 9.6213 7.875 9C7.875 8.3787 8.3787 7.875 9 7.875C9.6213 7.875 10.125 8.3787 10.125 9Z"
    fill="#111111" />
</svg>