<svg width="41" height="41" viewBox="0 0 41 41" fill="none" xmlns="http://www.w3.org/2000/svg">
  <path d="M25.4099 1.97689L21.4769 0.923031L18.1625 13.2926L15.1702 2.12527L11.2371 3.17913L14.4701 15.2446L6.41746 7.19201L3.53827 10.0712L12.371 18.904L1.37124 15.9566L0.317383 19.8896L12.336 23.11C12.1984 22.5165 12.1256 21.8981 12.1256 21.2627C12.1256 16.7651 15.7716 13.1191 20.2692 13.1191C24.7668 13.1191 28.4128 16.7651 28.4128 21.2627C28.4128 21.894 28.3409 22.5086 28.205 23.0986L39.1277 26.0253L40.1815 22.0923L28.1151 18.8591L39.1156 15.9115L38.0617 11.9785L25.9958 15.2115L34.0484 7.15895L31.1692 4.27976L22.459 12.99L25.4099 1.97689Z" class="ccustom" fill="#F97316"></path>
  <path d="M28.1943 23.1444C27.8571 24.57 27.1452 25.8507 26.1684 26.8768L34.0814 34.7899L36.9606 31.9107L28.1943 23.1444Z" class="ccustom" fill="#F97316"></path>
  <path d="M26.0884 26.9596C25.0998 27.9693 23.8505 28.7228 22.4495 29.1111L25.3289 39.8571L29.2619 38.8032L26.0884 26.9596Z" class="ccustom" fill="#F97316"></path>
  <path d="M22.3026 29.1504C21.6526 29.3175 20.9713 29.4063 20.2692 29.4063C19.517 29.4063 18.7886 29.3043 18.0971 29.1134L15.2151 39.8692L19.1481 40.923L22.3026 29.1504Z" class="ccustom" fill="#F97316"></path>
  <path d="M17.9581 29.0737C16.5785 28.6661 15.3514 27.903 14.383 26.8904L6.45052 34.8229L9.32971 37.7021L17.9581 29.0737Z" class="ccustom" fill="#F97316"></path>
  <path d="M14.3168 26.8203C13.365 25.8013 12.6717 24.5377 12.3417 23.1341L1.38334 26.0704L2.43719 30.0034L14.3168 26.8203Z" class="ccustom" fill="#F97316"></path>
</svg>
